<svg class="rich-terminal" viewBox="0 0 1238 952.8" xmlns="http://www.w3.org/2000/svg">
    <!-- Generated with Rich https://www.textualize.io -->
    <style>

    @font-face {
        font-family: "Fira Code";
        src: local("FiraCode-Regular"),
                url("https://cdnjs.cloudflare.com/ajax/libs/firacode/6.2.0/woff2/FiraCode-Regular.woff2") format("woff2"),
                url("https://cdnjs.cloudflare.com/ajax/libs/firacode/6.2.0/woff/FiraCode-Regular.woff") format("woff");
        font-style: normal;
        font-weight: 400;
    }
    @font-face {
        font-family: "Fira Code";
        src: local("FiraCode-Bold"),
                url("https://cdnjs.cloudflare.com/ajax/libs/firacode/6.2.0/woff2/FiraCode-Bold.woff2") format("woff2"),
                url("https://cdnjs.cloudflare.com/ajax/libs/firacode/6.2.0/woff/FiraCode-Bold.woff") format("woff");
        font-style: bold;
        font-weight: 700;
    }

    .terminal-823301013-matrix {
        font-family: Fira Code, monospace;
        font-size: 20px;
        line-height: 24.4px;
        font-variant-east-asian: full-width;
    }

    .terminal-823301013-title {
        font-size: 18px;
        font-weight: bold;
        font-family: arial;
    }

    .terminal-823301013-r1 { fill: #98a84b;font-weight: bold }
.terminal-823301013-r2 { fill: #c5c8c6 }
.terminal-823301013-r3 { fill: #ff4689 }
.terminal-823301013-r4 { fill: #a6e22e }
.terminal-823301013-r5 { fill: #959077 }
.terminal-823301013-r6 { fill: #f8f8f2 }
    </style>

    <defs>
    <clipPath id="terminal-823301013-clip-terminal">
      <rect x="0" y="0" width="1219.0" height="901.8" />
    </clipPath>
    <clipPath id="terminal-823301013-line-0">
    <rect x="0" y="1.5" width="1220" height="24.65"/>
            </clipPath>
<clipPath id="terminal-823301013-line-1">
    <rect x="0" y="25.9" width="1220" height="24.65"/>
            </clipPath>
<clipPath id="terminal-823301013-line-2">
    <rect x="0" y="50.3" width="1220" height="24.65"/>
            </clipPath>
<clipPath id="terminal-823301013-line-3">
    <rect x="0" y="74.7" width="1220" height="24.65"/>
            </clipPath>
<clipPath id="terminal-823301013-line-4">
    <rect x="0" y="99.1" width="1220" height="24.65"/>
            </clipPath>
<clipPath id="terminal-823301013-line-5">
    <rect x="0" y="123.5" width="1220" height="24.65"/>
            </clipPath>
<clipPath id="terminal-823301013-line-6">
    <rect x="0" y="147.9" width="1220" height="24.65"/>
            </clipPath>
<clipPath id="terminal-823301013-line-7">
    <rect x="0" y="172.3" width="1220" height="24.65"/>
            </clipPath>
<clipPath id="terminal-823301013-line-8">
    <rect x="0" y="196.7" width="1220" height="24.65"/>
            </clipPath>
<clipPath id="terminal-823301013-line-9">
    <rect x="0" y="221.1" width="1220" height="24.65"/>
            </clipPath>
<clipPath id="terminal-823301013-line-10">
    <rect x="0" y="245.5" width="1220" height="24.65"/>
            </clipPath>
<clipPath id="terminal-823301013-line-11">
    <rect x="0" y="269.9" width="1220" height="24.65"/>
            </clipPath>
<clipPath id="terminal-823301013-line-12">
    <rect x="0" y="294.3" width="1220" height="24.65"/>
            </clipPath>
<clipPath id="terminal-823301013-line-13">
    <rect x="0" y="318.7" width="1220" height="24.65"/>
            </clipPath>
<clipPath id="terminal-823301013-line-14">
    <rect x="0" y="343.1" width="1220" height="24.65"/>
            </clipPath>
<clipPath id="terminal-823301013-line-15">
    <rect x="0" y="367.5" width="1220" height="24.65"/>
            </clipPath>
<clipPath id="terminal-823301013-line-16">
    <rect x="0" y="391.9" width="1220" height="24.65"/>
            </clipPath>
<clipPath id="terminal-823301013-line-17">
    <rect x="0" y="416.3" width="1220" height="24.65"/>
            </clipPath>
<clipPath id="terminal-823301013-line-18">
    <rect x="0" y="440.7" width="1220" height="24.65"/>
            </clipPath>
<clipPath id="terminal-823301013-line-19">
    <rect x="0" y="465.1" width="1220" height="24.65"/>
            </clipPath>
<clipPath id="terminal-823301013-line-20">
    <rect x="0" y="489.5" width="1220" height="24.65"/>
            </clipPath>
<clipPath id="terminal-823301013-line-21">
    <rect x="0" y="513.9" width="1220" height="24.65"/>
            </clipPath>
<clipPath id="terminal-823301013-line-22">
    <rect x="0" y="538.3" width="1220" height="24.65"/>
            </clipPath>
<clipPath id="terminal-823301013-line-23">
    <rect x="0" y="562.7" width="1220" height="24.65"/>
            </clipPath>
<clipPath id="terminal-823301013-line-24">
    <rect x="0" y="587.1" width="1220" height="24.65"/>
            </clipPath>
<clipPath id="terminal-823301013-line-25">
    <rect x="0" y="611.5" width="1220" height="24.65"/>
            </clipPath>
<clipPath id="terminal-823301013-line-26">
    <rect x="0" y="635.9" width="1220" height="24.65"/>
            </clipPath>
<clipPath id="terminal-823301013-line-27">
    <rect x="0" y="660.3" width="1220" height="24.65"/>
            </clipPath>
<clipPath id="terminal-823301013-line-28">
    <rect x="0" y="684.7" width="1220" height="24.65"/>
            </clipPath>
<clipPath id="terminal-823301013-line-29">
    <rect x="0" y="709.1" width="1220" height="24.65"/>
            </clipPath>
<clipPath id="terminal-823301013-line-30">
    <rect x="0" y="733.5" width="1220" height="24.65"/>
            </clipPath>
<clipPath id="terminal-823301013-line-31">
    <rect x="0" y="757.9" width="1220" height="24.65"/>
            </clipPath>
<clipPath id="terminal-823301013-line-32">
    <rect x="0" y="782.3" width="1220" height="24.65"/>
            </clipPath>
<clipPath id="terminal-823301013-line-33">
    <rect x="0" y="806.7" width="1220" height="24.65"/>
            </clipPath>
<clipPath id="terminal-823301013-line-34">
    <rect x="0" y="831.1" width="1220" height="24.65"/>
            </clipPath>
<clipPath id="terminal-823301013-line-35">
    <rect x="0" y="855.5" width="1220" height="24.65"/>
            </clipPath>
    </defs>

    <rect fill="#292929" stroke="rgba(255,255,255,0.35)" stroke-width="1" x="1" y="1" width="1236" height="950.8" rx="8"/><text class="terminal-823301013-title" fill="#c5c8c6" text-anchor="middle" x="618" y="27">SlopSentinel&#160;demo:&#160;fix</text>
            <g transform="translate(26,22)">
            <circle cx="0" cy="0" r="7" fill="#ff5f57"/>
            <circle cx="22" cy="0" r="7" fill="#febc2e"/>
            <circle cx="44" cy="0" r="7" fill="#28c840"/>
            </g>
        
    <g transform="translate(9, 41)" clip-path="url(#terminal-823301013-clip-terminal)">
    <rect fill="#272822" x="0" y="50.3" width="244" height="24.65" shape-rendering="crispEdges"/><rect fill="#272822" x="244" y="50.3" width="976" height="24.65" shape-rendering="crispEdges"/><rect fill="#272822" x="0" y="74.7" width="244" height="24.65" shape-rendering="crispEdges"/><rect fill="#272822" x="244" y="74.7" width="976" height="24.65" shape-rendering="crispEdges"/><rect fill="#272822" x="0" y="99.1" width="207.4" height="24.65" shape-rendering="crispEdges"/><rect fill="#272822" x="207.4" y="99.1" width="1012.6" height="24.65" shape-rendering="crispEdges"/><rect fill="#272822" x="0" y="123.5" width="976" height="24.65" shape-rendering="crispEdges"/><rect fill="#272822" x="976" y="123.5" width="244" height="24.65" shape-rendering="crispEdges"/><rect fill="#272822" x="0" y="147.9" width="414.8" height="24.65" shape-rendering="crispEdges"/><rect fill="#272822" x="414.8" y="147.9" width="805.2" height="24.65" shape-rendering="crispEdges"/><rect fill="#272822" x="0" y="172.3" width="536.8" height="24.65" shape-rendering="crispEdges"/><rect fill="#272822" x="536.8" y="172.3" width="683.2" height="24.65" shape-rendering="crispEdges"/><rect fill="#272822" x="0" y="196.7" width="12.2" height="24.65" shape-rendering="crispEdges"/><rect fill="#272822" x="12.2" y="196.7" width="1207.8" height="24.65" shape-rendering="crispEdges"/><rect fill="#272822" x="0" y="221.1" width="12.2" height="24.65" shape-rendering="crispEdges"/><rect fill="#272822" x="12.2" y="221.1" width="414.8" height="24.65" shape-rendering="crispEdges"/><rect fill="#272822" x="427" y="221.1" width="793" height="24.65" shape-rendering="crispEdges"/><rect fill="#272822" x="0" y="245.5" width="12.2" height="24.65" shape-rendering="crispEdges"/><rect fill="#272822" x="12.2" y="245.5" width="1207.8" height="24.65" shape-rendering="crispEdges"/><rect fill="#272822" x="0" y="269.9" width="12.2" height="24.65" shape-rendering="crispEdges"/><rect fill="#272822" x="12.2" y="269.9" width="134.2" height="24.65" shape-rendering="crispEdges"/><rect fill="#272822" x="146.4" y="269.9" width="1073.6" height="24.65" shape-rendering="crispEdges"/><rect fill="#272822" x="0" y="294.3" width="12.2" height="24.65" shape-rendering="crispEdges"/><rect fill="#272822" x="12.2" y="294.3" width="109.8" height="24.65" shape-rendering="crispEdges"/><rect fill="#272822" x="122" y="294.3" width="1098" height="24.65" shape-rendering="crispEdges"/><rect fill="#272822" x="0" y="318.7" width="170.8" height="24.65" shape-rendering="crispEdges"/><rect fill="#272822" x="170.8" y="318.7" width="1049.2" height="24.65" shape-rendering="crispEdges"/><rect fill="#272822" x="0" y="343.1" width="12.2" height="24.65" shape-rendering="crispEdges"/><rect fill="#272822" x="12.2" y="343.1" width="1207.8" height="24.65" shape-rendering="crispEdges"/><rect fill="#272822" x="0" y="367.5" width="780.8" height="24.65" shape-rendering="crispEdges"/><rect fill="#272822" x="780.8" y="367.5" width="439.2" height="24.65" shape-rendering="crispEdges"/><rect fill="#272822" x="0" y="391.9" width="536.8" height="24.65" shape-rendering="crispEdges"/><rect fill="#272822" x="536.8" y="391.9" width="683.2" height="24.65" shape-rendering="crispEdges"/><rect fill="#272822" x="0" y="416.3" width="12.2" height="24.65" shape-rendering="crispEdges"/><rect fill="#272822" x="12.2" y="416.3" width="1207.8" height="24.65" shape-rendering="crispEdges"/><rect fill="#272822" x="0" y="440.7" width="12.2" height="24.65" shape-rendering="crispEdges"/><rect fill="#272822" x="12.2" y="440.7" width="1207.8" height="24.65" shape-rendering="crispEdges"/><rect fill="#272822" x="0" y="465.1" width="12.2" height="24.65" shape-rendering="crispEdges"/><rect fill="#272822" x="12.2" y="465.1" width="390.4" height="24.65" shape-rendering="crispEdges"/><rect fill="#272822" x="402.6" y="465.1" width="817.4" height="24.65" shape-rendering="crispEdges"/><rect fill="#272822" x="0" y="489.5" width="170.8" height="24.65" shape-rendering="crispEdges"/><rect fill="#272822" x="170.8" y="489.5" width="1049.2" height="24.65" shape-rendering="crispEdges"/><rect fill="#272822" x="0" y="513.9" width="244" height="24.65" shape-rendering="crispEdges"/><rect fill="#272822" x="244" y="513.9" width="976" height="24.65" shape-rendering="crispEdges"/><rect fill="#272822" x="0" y="538.3" width="122" height="24.65" shape-rendering="crispEdges"/><rect fill="#272822" x="122" y="538.3" width="1098" height="24.65" shape-rendering="crispEdges"/><rect fill="#272822" x="0" y="562.7" width="256.2" height="24.65" shape-rendering="crispEdges"/><rect fill="#272822" x="256.2" y="562.7" width="963.8" height="24.65" shape-rendering="crispEdges"/><rect fill="#272822" x="0" y="587.1" width="207.4" height="24.65" shape-rendering="crispEdges"/><rect fill="#272822" x="207.4" y="587.1" width="1012.6" height="24.65" shape-rendering="crispEdges"/><rect fill="#272822" x="0" y="611.5" width="12.2" height="24.65" shape-rendering="crispEdges"/><rect fill="#272822" x="12.2" y="611.5" width="1207.8" height="24.65" shape-rendering="crispEdges"/><rect fill="#272822" x="0" y="635.9" width="12.2" height="24.65" shape-rendering="crispEdges"/><rect fill="#272822" x="12.2" y="635.9" width="1207.8" height="24.65" shape-rendering="crispEdges"/><rect fill="#272822" x="0" y="660.3" width="12.2" height="24.65" shape-rendering="crispEdges"/><rect fill="#272822" x="12.2" y="660.3" width="585.6" height="24.65" shape-rendering="crispEdges"/><rect fill="#272822" x="597.8" y="660.3" width="622.2" height="24.65" shape-rendering="crispEdges"/><rect fill="#272822" x="0" y="684.7" width="207.4" height="24.65" shape-rendering="crispEdges"/><rect fill="#272822" x="207.4" y="684.7" width="1012.6" height="24.65" shape-rendering="crispEdges"/><rect fill="#272822" x="0" y="709.1" width="12.2" height="24.65" shape-rendering="crispEdges"/><rect fill="#272822" x="12.2" y="709.1" width="634.4" height="24.65" shape-rendering="crispEdges"/><rect fill="#272822" x="646.6" y="709.1" width="573.4" height="24.65" shape-rendering="crispEdges"/><rect fill="#272822" x="0" y="733.5" width="12.2" height="24.65" shape-rendering="crispEdges"/><rect fill="#272822" x="12.2" y="733.5" width="378.2" height="24.65" shape-rendering="crispEdges"/><rect fill="#272822" x="390.4" y="733.5" width="829.6" height="24.65" shape-rendering="crispEdges"/><rect fill="#272822" x="0" y="757.9" width="12.2" height="24.65" shape-rendering="crispEdges"/><rect fill="#272822" x="12.2" y="757.9" width="256.2" height="24.65" shape-rendering="crispEdges"/><rect fill="#272822" x="268.4" y="757.9" width="951.6" height="24.65" shape-rendering="crispEdges"/><rect fill="#272822" x="0" y="782.3" width="158.6" height="24.65" shape-rendering="crispEdges"/><rect fill="#272822" x="158.6" y="782.3" width="1061.4" height="24.65" shape-rendering="crispEdges"/><rect fill="#272822" x="0" y="806.7" width="170.8" height="24.65" shape-rendering="crispEdges"/><rect fill="#272822" x="170.8" y="806.7" width="1049.2" height="24.65" shape-rendering="crispEdges"/><rect fill="#272822" x="0" y="831.1" width="12.2" height="24.65" shape-rendering="crispEdges"/><rect fill="#272822" x="12.2" y="831.1" width="1207.8" height="24.65" shape-rendering="crispEdges"/><rect fill="#272822" x="0" y="855.5" width="12.2" height="24.65" shape-rendering="crispEdges"/><rect fill="#272822" x="12.2" y="855.5" width="951.6" height="24.65" shape-rendering="crispEdges"/><rect fill="#272822" x="963.8" y="855.5" width="256.2" height="24.65" shape-rendering="crispEdges"/><rect fill="#272822" x="0" y="879.9" width="12.2" height="24.65" shape-rendering="crispEdges"/><rect fill="#272822" x="12.2" y="879.9" width="536.8" height="24.65" shape-rendering="crispEdges"/><rect fill="#272822" x="549" y="879.9" width="671" height="24.65" shape-rendering="crispEdges"/>
    <g class="terminal-823301013-matrix">
    <text class="terminal-823301013-r1" x="0" y="20" textLength="451.4" clip-path="url(#terminal-823301013-line-0)">$&#160;slop&#160;fix&#160;demo/bad_code.py&#160;--dry-run</text><text class="terminal-823301013-r2" x="1220" y="20" textLength="12.2" clip-path="url(#terminal-823301013-line-0)">
</text><text class="terminal-823301013-r2" x="1220" y="44.4" textLength="12.2" clip-path="url(#terminal-823301013-line-1)">
</text><text class="terminal-823301013-r3" x="0" y="68.8" textLength="244" clip-path="url(#terminal-823301013-line-2)">---&#160;demo/bad_code.py</text><text class="terminal-823301013-r2" x="1220" y="68.8" textLength="12.2" clip-path="url(#terminal-823301013-line-2)">
</text><text class="terminal-823301013-r4" x="0" y="93.2" textLength="244" clip-path="url(#terminal-823301013-line-3)">+++&#160;demo/bad_code.py</text><text class="terminal-823301013-r2" x="1220" y="93.2" textLength="12.2" clip-path="url(#terminal-823301013-line-3)">
</text><text class="terminal-823301013-r5" x="0" y="117.6" textLength="207.4" clip-path="url(#terminal-823301013-line-4)">@@&#160;-1,21&#160;+1,14&#160;@@</text><text class="terminal-823301013-r2" x="1220" y="117.6" textLength="12.2" clip-path="url(#terminal-823301013-line-4)">
</text><text class="terminal-823301013-r3" x="0" y="142" textLength="976" clip-path="url(#terminal-823301013-line-5)">-#&#160;Here&#x27;s&#160;a&#160;comprehensive&#160;demo&#160;module&#160;(intentionally&#160;&quot;sloppy&quot;&#160;to&#160;trigger&#160;rules).</text><text class="terminal-823301013-r2" x="1220" y="142" textLength="12.2" clip-path="url(#terminal-823301013-line-5)">
</text><text class="terminal-823301013-r3" x="0" y="166.4" textLength="414.8" clip-path="url(#terminal-823301013-line-6)">-#&#160;We&#160;need&#160;to&#160;ensure&#160;this&#160;is&#160;safe.</text><text class="terminal-823301013-r2" x="1220" y="166.4" textLength="12.2" clip-path="url(#terminal-823301013-line-6)">
</text><text class="terminal-823301013-r3" x="0" y="190.8" textLength="536.8" clip-path="url(#terminal-823301013-line-7)">-#&#160;As&#160;of&#160;my&#160;last&#160;update,&#160;this&#160;pattern&#160;works.</text><text class="terminal-823301013-r2" x="1220" y="190.8" textLength="12.2" clip-path="url(#terminal-823301013-line-7)">
</text><text class="terminal-823301013-r2" x="1220" y="215.2" textLength="12.2" clip-path="url(#terminal-823301013-line-8)">
</text><text class="terminal-823301013-r6" x="12.2" y="239.6" textLength="414.8" clip-path="url(#terminal-823301013-line-9)">from&#160;__future__&#160;import&#160;annotations</text><text class="terminal-823301013-r2" x="1220" y="239.6" textLength="12.2" clip-path="url(#terminal-823301013-line-9)">
</text><text class="terminal-823301013-r2" x="1220" y="264" textLength="12.2" clip-path="url(#terminal-823301013-line-10)">
</text><text class="terminal-823301013-r6" x="12.2" y="288.4" textLength="134.2" clip-path="url(#terminal-823301013-line-11)">import&#160;json</text><text class="terminal-823301013-r2" x="1220" y="288.4" textLength="12.2" clip-path="url(#terminal-823301013-line-11)">
</text><text class="terminal-823301013-r6" x="12.2" y="312.8" textLength="109.8" clip-path="url(#terminal-823301013-line-12)">import&#160;os</text><text class="terminal-823301013-r2" x="1220" y="312.8" textLength="12.2" clip-path="url(#terminal-823301013-line-12)">
</text><text class="terminal-823301013-r3" x="0" y="337.2" textLength="170.8" clip-path="url(#terminal-823301013-line-13)">-import&#160;random</text><text class="terminal-823301013-r2" x="1220" y="337.2" textLength="12.2" clip-path="url(#terminal-823301013-line-13)">
</text><text class="terminal-823301013-r2" x="1220" y="361.6" textLength="12.2" clip-path="url(#terminal-823301013-line-14)">
</text><text class="terminal-823301013-r3" x="0" y="386" textLength="780.8" clip-path="url(#terminal-823301013-line-15)">-api_token&#160;=&#160;&quot;abc123&quot;&#160;&#160;#&#160;hardcoded&#160;credential-like&#160;literal&#160;(E09)</text><text class="terminal-823301013-r2" x="1220" y="386" textLength="12.2" clip-path="url(#terminal-823301013-line-15)">
</text><text class="terminal-823301013-r4" x="0" y="410.4" textLength="536.8" clip-path="url(#terminal-823301013-line-16)">+api_token&#160;=&#160;os.environ.get(&quot;API_TOKEN&quot;,&#160;&quot;&quot;)</text><text class="terminal-823301013-r2" x="1220" y="410.4" textLength="12.2" clip-path="url(#terminal-823301013-line-16)">
</text><text class="terminal-823301013-r2" x="1220" y="434.8" textLength="12.2" clip-path="url(#terminal-823301013-line-17)">
</text><text class="terminal-823301013-r2" x="1220" y="459.2" textLength="12.2" clip-path="url(#terminal-823301013-line-18)">
</text><text class="terminal-823301013-r6" x="12.2" y="483.6" textLength="390.4" clip-path="url(#terminal-823301013-line-19)">def&#160;is_positive(x:&#160;int)&#160;-&gt;&#160;bool:</text><text class="terminal-823301013-r2" x="1220" y="483.6" textLength="12.2" clip-path="url(#terminal-823301013-line-19)">
</text><text class="terminal-823301013-r3" x="0" y="508" textLength="170.8" clip-path="url(#terminal-823301013-line-20)">-&#160;&#160;&#160;&#160;if&#160;x&#160;&gt;&#160;0:</text><text class="terminal-823301013-r2" x="1220" y="508" textLength="12.2" clip-path="url(#terminal-823301013-line-20)">
</text><text class="terminal-823301013-r3" x="0" y="532.4" textLength="244" clip-path="url(#terminal-823301013-line-21)">-&#160;&#160;&#160;&#160;&#160;&#160;&#160;&#160;return&#160;True</text><text class="terminal-823301013-r2" x="1220" y="532.4" textLength="12.2" clip-path="url(#terminal-823301013-line-21)">
</text><text class="terminal-823301013-r3" x="0" y="556.8" textLength="122" clip-path="url(#terminal-823301013-line-22)">-&#160;&#160;&#160;&#160;else:</text><text class="terminal-823301013-r2" x="1220" y="556.8" textLength="12.2" clip-path="url(#terminal-823301013-line-22)">
</text><text class="terminal-823301013-r3" x="0" y="581.2" textLength="256.2" clip-path="url(#terminal-823301013-line-23)">-&#160;&#160;&#160;&#160;&#160;&#160;&#160;&#160;return&#160;False</text><text class="terminal-823301013-r2" x="1220" y="581.2" textLength="12.2" clip-path="url(#terminal-823301013-line-23)">
</text><text class="terminal-823301013-r4" x="0" y="605.6" textLength="207.4" clip-path="url(#terminal-823301013-line-24)">+&#160;&#160;&#160;&#160;return&#160;x&#160;&gt;&#160;0</text><text class="terminal-823301013-r2" x="1220" y="605.6" textLength="12.2" clip-path="url(#terminal-823301013-line-24)">
</text><text class="terminal-823301013-r2" x="1220" y="630" textLength="12.2" clip-path="url(#terminal-823301013-line-25)">
</text><text class="terminal-823301013-r2" x="1220" y="654.4" textLength="12.2" clip-path="url(#terminal-823301013-line-26)">
</text><text class="terminal-823301013-r6" x="12.2" y="678.8" textLength="585.6" clip-path="url(#terminal-823301013-line-27)">def&#160;load_config(path:&#160;str)&#160;-&gt;&#160;dict[str,&#160;object]:</text><text class="terminal-823301013-r2" x="1220" y="678.8" textLength="12.2" clip-path="url(#terminal-823301013-line-27)">
</text><text class="terminal-823301013-r5" x="0" y="703.2" textLength="207.4" clip-path="url(#terminal-823301013-line-28)">@@&#160;-23,7&#160;+16,7&#160;@@</text><text class="terminal-823301013-r2" x="1220" y="703.2" textLength="12.2" clip-path="url(#terminal-823301013-line-28)">
</text><text class="terminal-823301013-r6" x="12.2" y="727.6" textLength="634.4" clip-path="url(#terminal-823301013-line-29)">&#160;&#160;&#160;&#160;&#160;&#160;&#160;&#160;with&#160;open(path,&#160;&quot;r&quot;,&#160;encoding=&quot;utf-8&quot;)&#160;as&#160;f:</text><text class="terminal-823301013-r2" x="1220" y="727.6" textLength="12.2" clip-path="url(#terminal-823301013-line-29)">
</text><text class="terminal-823301013-r6" x="12.2" y="752" textLength="378.2" clip-path="url(#terminal-823301013-line-30)">&#160;&#160;&#160;&#160;&#160;&#160;&#160;&#160;&#160;&#160;&#160;&#160;return&#160;json.load(f)</text><text class="terminal-823301013-r2" x="1220" y="752" textLength="12.2" clip-path="url(#terminal-823301013-line-30)">
</text><text class="terminal-823301013-r6" x="12.2" y="776.4" textLength="256.2" clip-path="url(#terminal-823301013-line-31)">&#160;&#160;&#160;&#160;except&#160;Exception:</text><text class="terminal-823301013-r2" x="1220" y="776.4" textLength="12.2" clip-path="url(#terminal-823301013-line-31)">
</text><text class="terminal-823301013-r3" x="0" y="800.8" textLength="158.6" clip-path="url(#terminal-823301013-line-32)">-&#160;&#160;&#160;&#160;&#160;&#160;&#160;&#160;pass</text><text class="terminal-823301013-r2" x="1220" y="800.8" textLength="12.2" clip-path="url(#terminal-823301013-line-32)">
</text><text class="terminal-823301013-r4" x="0" y="825.2" textLength="170.8" clip-path="url(#terminal-823301013-line-33)">+&#160;&#160;&#160;&#160;&#160;&#160;&#160;&#160;raise</text><text class="terminal-823301013-r2" x="1220" y="825.2" textLength="12.2" clip-path="url(#terminal-823301013-line-33)">
</text><text class="terminal-823301013-r2" x="1220" y="849.6" textLength="12.2" clip-path="url(#terminal-823301013-line-34)">
</text><text class="terminal-823301013-r6" x="12.2" y="874" textLength="951.6" clip-path="url(#terminal-823301013-line-35)">&#160;&#160;&#160;&#160;#&#160;Use&#160;os&#160;so&#160;it&#160;is&#160;*not*&#160;an&#160;unused&#160;import&#160;(we&#160;still&#160;want&#160;E03&#160;for&#160;`random`).</text><text class="terminal-823301013-r2" x="1220" y="874" textLength="12.2" clip-path="url(#terminal-823301013-line-35)">
</text><text class="terminal-823301013-r6" x="12.2" y="898.4" textLength="536.8" clip-path="url(#terminal-823301013-line-36)">&#160;&#160;&#160;&#160;return&#160;{&quot;home&quot;:&#160;os.path.expanduser(&quot;~&quot;)}</text><text class="terminal-823301013-r2" x="1220" y="898.4" textLength="12.2" clip-path="url(#terminal-823301013-line-36)">
</text>
    </g>
    </g>
</svg>
